<svg width="44" height="37" viewBox="0 0 44 37" fill="none" xmlns="http://www.w3.org/2000/svg">
<path d="M39.4992 9.16666C39.5259 9.55449 39.5259 9.94231 39.5259 10.3337C39.5259 22.2599 30.4853 36.0144 13.9542 36.0144V36.0073C9.07085 36.0144 4.28895 34.6096 0.177979 31.961C0.888056 32.0468 1.60169 32.0896 2.31711 32.0914C6.36402 32.095 10.2952 30.7314 13.479 28.2203C9.63322 28.147 6.2608 25.6288 5.08267 21.9525C6.42986 22.2134 7.81798 22.1598 9.14026 21.797C4.94742 20.9463 1.93093 17.2467 1.93093 12.9502C1.93093 12.9109 1.93093 12.8734 1.93093 12.8358C3.18024 13.5346 4.57903 13.9225 6.00987 13.9654C2.06084 11.3149 0.843565 6.03901 3.22829 1.91408C7.79129 7.55279 14.5237 10.9807 21.7508 11.3435C21.0265 8.2087 22.016 4.92378 24.3509 2.72012C27.9707 -0.697056 33.6637 -0.521908 37.0664 3.11153C39.0792 2.71298 41.0083 1.97128 42.7737 0.920386C42.1028 3.00966 40.6987 4.78437 38.8229 5.91211C40.6043 5.70122 42.3448 5.22224 43.9839 4.49127C42.7773 6.30709 41.2575 7.88879 39.4992 9.16666Z" fill="white"/>
</svg>
