<svg width="37" height="37" viewBox="0 0 37 37" fill="none" xmlns="http://www.w3.org/2000/svg"><path fill-rule="evenodd" clip-rule="evenodd" d="M18.2162 3.52492C23.0086 3.52492 23.5712 3.54628 25.4654 3.63174C27.2171 3.71007 28.1642 4.00203 28.798 4.25126C29.6383 4.57883 30.2364 4.96336 30.8631 5.59001C31.4897 6.21665 31.8814 6.81482 32.2018 7.65509C32.444 8.28886 32.743 9.23595 32.8214 10.9877C32.9068 12.8819 32.9282 13.4445 32.9282 18.2369C32.9282 23.0293 32.9068 23.5919 32.8214 25.486C32.743 27.2378 32.4511 28.1849 32.2018 28.8187C31.8743 29.6589 31.4897 30.2571 30.8631 30.8838C30.2364 31.5104 29.6383 31.9021 28.798 32.2225C28.1642 32.4646 27.2171 32.7637 25.4654 32.842C23.5712 32.9275 23.0086 32.9488 18.2162 32.9488C13.4238 32.9488 12.8612 32.9275 10.967 32.842C9.21528 32.7637 8.26819 32.4717 7.63442 32.2225C6.79415 31.8949 6.19598 31.5104 5.56934 30.8838C4.94269 30.2571 4.55104 29.6589 4.23059 28.8187C3.98848 28.1849 3.6894 27.2378 3.61107 25.486C3.52561 23.5919 3.50425 23.0293 3.50425 18.2369C3.50425 13.4445 3.52561 12.8819 3.61107 10.9877C3.6894 9.23595 3.98136 8.28886 4.23059 7.65509C4.55816 6.81482 4.94269 6.21665 5.56934 5.59001C6.19598 4.96336 6.79415 4.57171 7.63442 4.25126C8.26819 4.00915 9.21528 3.71007 10.967 3.63174C12.8612 3.53916 13.4238 3.52492 18.2162 3.52492ZM18.2162 0.291992C13.3455 0.291992 12.7331 0.313355 10.8175 0.398807C8.90908 0.484259 7.60594 0.790461 6.46658 1.23196C5.2845 1.68771 4.28756 2.30723 3.29062 3.30417C2.29368 4.30111 1.68128 5.30517 1.21841 6.48013C0.776912 7.61949 0.470709 8.92263 0.385257 10.8382C0.299805 12.7466 0.278442 13.359 0.278442 18.2298C0.278442 23.1005 0.299805 23.7129 0.385257 25.6285C0.470709 27.5369 0.776912 28.84 1.21841 29.9865C1.67416 31.1686 2.29368 32.1655 3.29062 33.1625C4.28756 34.1594 5.29162 34.7718 6.46658 35.2347C7.60594 35.6762 8.90908 35.9824 10.8246 36.0678C12.7402 36.1533 13.3455 36.1747 18.2233 36.1747C23.1012 36.1747 23.7065 36.1533 25.622 36.0678C27.5305 35.9824 28.8336 35.6762 29.9801 35.2347C31.1622 34.7789 32.1591 34.1594 33.156 33.1625C34.153 32.1655 34.7654 31.1615 35.2283 29.9865C35.6698 28.8472 35.976 27.544 36.0614 25.6285C36.1469 23.7129 36.1682 23.1076 36.1682 18.2298C36.1682 13.3519 36.1469 12.7466 36.0614 10.8311C35.976 8.92263 35.6698 7.61949 35.2283 6.47301C34.7725 5.29093 34.153 4.29399 33.156 3.29705C32.1591 2.30011 31.1551 1.68771 29.9801 1.22484C28.8407 0.78334 27.5376 0.477138 25.622 0.391686C23.6994 0.313355 23.087 0.291992 18.2162 0.291992ZM18.2163 9.01514C13.1319 9.01514 9.00171 13.1382 9.00171 18.2297C9.00171 23.3212 13.1319 27.4443 18.2163 27.4443C23.3007 27.4443 27.4308 23.3141 27.4308 18.2297C27.4308 13.1453 23.3007 9.01514 18.2163 9.01514ZM18.2163 24.2113C14.9121 24.2113 12.2346 21.5338 12.2346 18.2297C12.2346 14.9256 14.9121 12.2481 18.2163 12.2481C21.5204 12.2481 24.1979 14.9256 24.1979 18.2297C24.1979 21.5338 21.5204 24.2113 18.2163 24.2113ZM29.9445 8.652C29.9445 9.83971 28.9817 10.8025 27.794 10.8025C26.6063 10.8025 25.6434 9.83971 25.6434 8.652C25.6434 7.46429 26.6063 6.50146 27.794 6.50146C28.9817 6.50146 29.9445 7.46429 29.9445 8.652Z" fill="#FFF3F3"/></svg>
