<svg width="59" height="55" viewBox="0 0 59 55" fill="none" xmlns="http://www.w3.org/2000/svg">
<path d="M12.8582 54.96C8.89816 54.96 5.79616 53.508 3.55216 50.604C1.30816 47.7 0.186157 44.004 0.186157 39.516C0.186157 36.216 0.780157 32.256 1.96816 27.636C3.15616 23.016 4.93816 18.33 7.31416 13.578C9.82216 8.69402 12.8582 4.20602 16.4222 0.114014L21.3722 4.07401C19.1282 6.71402 17.1482 9.81601 15.4322 13.38C13.8482 16.944 12.5942 20.64 11.6702 24.468C10.7462 28.296 10.2842 31.992 10.2842 35.556C10.9442 35.292 11.6702 35.094 12.4622 34.962C13.3862 34.83 14.3102 34.764 15.2342 34.764C17.7422 34.764 19.7882 35.688 21.3722 37.536C23.0882 39.384 23.9462 41.496 23.9462 43.872C23.9462 47.436 22.8242 50.208 20.5802 52.188C18.4682 54.036 15.8942 54.96 12.8582 54.96ZM47.7062 54.96C43.7462 54.96 40.6442 53.508 38.4002 50.604C36.1562 47.7 35.0342 44.004 35.0342 39.516C35.0342 36.216 35.6282 32.256 36.8162 27.636C38.0042 23.016 39.7862 18.33 42.1622 13.578C44.6702 8.69402 47.7062 4.20602 51.2702 0.114014L56.2202 4.07401C53.9762 6.71402 51.9962 9.81601 50.2802 13.38C48.6962 16.944 47.4422 20.64 46.5182 24.468C45.5942 28.296 45.1322 31.992 45.1322 35.556C45.7922 35.292 46.5182 35.094 47.3102 34.962C48.2342 34.83 49.1582 34.764 50.0822 34.764C52.5902 34.764 54.6362 35.688 56.2202 37.536C57.9362 39.384 58.7942 41.496 58.7942 43.872C58.7942 47.436 57.6722 50.208 55.4282 52.188C53.3162 54.036 50.7422 54.96 47.7062 54.96Z" fill="black"/>
</svg>
